<svg width="2044" height="425" viewBox="0 0 2044 425" fill="none" xmlns="http://www.w3.org/2000/svg">
<path d="M571.84 355C582.425 335.655 582.425 335.655 590.09 317.405L680.61 98.405H705.795L796.68 318.5C803.98 336.02 804.345 336.385 814.565 355H749.595C761.275 334.195 761.275 333.83 756.165 320.69L739.74 278.715H633.16L616.735 320.69C610.895 335.655 610.895 336.02 622.575 355H571.84ZM642.285 256.085H730.615L686.45 144.03L642.285 256.085ZM997.809 360.475C934.299 360.475 896.704 324.34 896.704 257.91V127.97C896.704 118.845 896.704 118.845 885.389 99.5H948.534C935.029 119.575 935.029 119.575 935.029 129.065V260.1C935.029 305.725 961.309 333.83 1004.01 333.83C1045.26 333.83 1070.81 305.725 1070.81 260.1V128.335C1070.81 118.845 1070.81 118.845 1056.94 99.5H1108.77C1097.45 119.575 1097.45 119.575 1097.45 129.065V257.18C1097.45 323.61 1060.95 360.475 997.809 360.475ZM1212.57 355C1223.89 335.29 1223.89 335.29 1223.89 325.8V127.97C1223.89 118.845 1223.89 118.845 1212.57 99.5H1312.58C1366.6 99.5 1399.09 127.24 1399.09 167.755C1399.09 202.795 1374.63 226.885 1334.12 233.09L1402.74 321.055C1416.97 339.305 1416.97 339.305 1433.76 355H1382.3L1290.32 234.915H1262.21V325.8C1262.21 335.29 1262.21 335.29 1277.54 355H1212.57ZM1262.21 215.205H1305.28C1339.96 215.205 1358.94 198.05 1358.94 168.12C1358.94 138.19 1339.96 121.035 1305.28 121.035H1262.21V215.205ZM1684.72 355H1517.55C1528.86 335.29 1528.86 335.29 1528.86 325.8V127.97C1528.86 118.845 1528.86 118.845 1517.55 99.5H1686.91V144.03C1663.55 122.13 1656.25 122.495 1643.47 122.495H1567.19V208.635H1629.6C1641.28 208.635 1647.49 208.635 1666.47 194.4V245.5C1647.49 231.265 1640.92 231.63 1629.6 231.63H1567.19V332.005H1637.27C1651.5 332.005 1659.53 332.37 1690.56 307.55L1684.72 355ZM1766.07 355C1776.66 335.655 1776.66 335.655 1784.32 317.405L1874.84 98.405H1900.03L1990.91 318.5C1998.21 336.02 1998.58 336.385 2008.8 355H1943.83C1955.51 334.195 1955.51 333.83 1950.4 320.69L1933.97 278.715H1827.39L1810.97 320.69C1805.13 335.655 1805.13 336.02 1816.81 355H1766.07ZM1836.52 256.085H1924.85L1880.68 144.03L1836.52 256.085Z" fill="white"/>
<path d="M200.516 422.83C188.061 413.553 173.968 395.805 170.81 382.545C186.536 367.408 196.501 347.458 199.633 335.494C208.148 302.956 204.874 269.699 196.358 238.802C191.896 216.49 171.97 184.589 158.037 157.579C141.136 124.814 139.393 87.1159 171.562 53.0845L199.633 23.3977L219.567 2.43555L239.502 23.5474L267.571 53.2341C299.741 87.2655 297.996 124.964 281.095 157.728C267.163 184.738 247.236 216.639 242.774 238.951C234.259 269.849 230.984 303.105 239.5 335.643C242.631 347.608 252.597 367.557 268.323 382.694C265.165 395.954 251.072 413.702 238.617 422.98C238.617 422.98 227.432 419.457 219.796 419.43C212.173 419.404 200.516 422.83 200.516 422.83Z" fill="white" stroke="white" stroke-width="2.56753"/>
<path d="M337.827 401.384C267.749 396.859 208.582 317.16 273.842 186.459C337.827 64.6578 508.933 162.109 403.373 268.223C403.373 268.223 389.496 217.898 337.827 217.898C257.947 220.796 238.736 378.021 352.653 357.775L337.827 401.384Z" fill="white" stroke="white" stroke-width="2.56753"/>
<path d="M100.931 401.384C171.009 396.859 230.175 317.16 164.916 186.459C100.931 64.6578 -70.175 162.109 35.3844 268.223C35.3844 268.223 49.2622 217.898 100.931 217.898C180.811 220.796 200.022 378.021 86.1047 357.775L100.931 401.384Z" fill="white" stroke="white" stroke-width="2.56753"/>
</svg>
