<svg width="1600" height="425" viewBox="0 0 1600 425" fill="none" xmlns="http://www.w3.org/2000/svg" xmlns:xlink="http://www.w3.org/1999/xlink">
<path d="M546.146 386L655.616 99H710.966L820.436 386H775.336L744.586 302.36H621.586L590.836 386H546.146ZM635.116 265.05H731.056L683.086 134.67L635.116 265.05ZM919.345 391.74C871.375 391.74 841.855 362.22 841.855 307.69V188.79H881.625V304C881.625 339.26 898.025 355.66 926.725 355.66C956.655 355.66 975.925 334.34 975.925 302.77V188.79H1015.69V386H980.435V363.45C967.315 382.72 944.765 391.74 919.345 391.74ZM1066.35 386V188.79H1101.61V220.77C1106.53 201.09 1121.29 188.79 1144.66 188.79H1182.38V223.64H1140.97C1116.37 223.64 1106.12 237.58 1106.12 264.23V386H1066.35ZM1284.31 391.74C1225.27 391.74 1185.91 350.33 1185.91 286.37C1185.91 222.82 1225.27 183.05 1281.44 183.05C1340.07 183.05 1376.15 221.18 1376.15 281.45C1376.15 286.78 1375.74 292.11 1374.92 300.31H1225.27C1226.91 336.39 1249.05 358.12 1284.31 358.12C1307.68 358.12 1324.08 347.46 1331.87 329.83H1372.46C1360.16 367.96 1329.82 391.74 1284.31 391.74ZM1225.27 269.15H1335.97V267.1C1335.97 236.76 1316.29 215.03 1281.44 215.03C1248.23 215.03 1226.91 237.17 1225.27 269.15ZM1470.8 391.74C1425.29 391.74 1396.59 367.96 1396.59 330.24C1396.59 294.98 1420.37 269.56 1468.75 266.69L1528.61 263.41V252.34C1528.61 226.51 1515.9 215.85 1488.84 215.85C1462.6 215.85 1449.48 222.82 1446.2 243.73H1406.43C1410.94 203.14 1438.82 183.05 1491.71 183.05C1538.86 183.05 1566.33 206.83 1566.33 250.29V346.64C1566.33 351.15 1568.38 353.2 1572.89 353.2H1589.7V386H1557.72C1544.19 386 1536.4 378.62 1536.4 365.5V359.76C1524.92 379.85 1501.55 391.74 1470.8 391.74ZM1436.36 329.01C1436.36 347.05 1451.12 358.94 1475.31 358.94C1507.29 358.94 1528.61 340.49 1528.61 306.87V294.16L1473.67 298.26C1448.25 299.9 1436.36 313.02 1436.36 329.01Z" fill="black"/>
<path d="M200.516 422.83C188.061 413.553 173.968 395.805 170.81 382.545C186.536 367.408 196.501 347.458 199.633 335.494C208.148 302.956 204.874 269.699 196.358 238.802C191.896 216.49 171.97 184.589 158.037 157.579C141.136 124.814 139.393 87.1159 171.562 53.0845L199.633 23.3977L219.567 2.43555L239.502 23.5474L267.571 53.2341C299.741 87.2655 297.996 124.964 281.095 157.728C267.163 184.738 247.236 216.639 242.774 238.951C234.259 269.849 230.984 303.105 239.5 335.643C242.631 347.608 252.597 367.557 268.323 382.694C265.165 395.954 251.072 413.702 238.617 422.98C238.617 422.98 227.432 419.457 219.796 419.43C212.173 419.404 200.516 422.83 200.516 422.83Z" fill="black"/>
<path d="M200.516 422.83C188.061 413.553 173.968 395.805 170.81 382.545C186.536 367.408 196.501 347.458 199.633 335.494C208.148 302.956 204.874 269.699 196.358 238.802C191.896 216.49 171.97 184.589 158.037 157.579C141.136 124.814 139.393 87.1159 171.562 53.0845L199.633 23.3977L219.567 2.43555L239.502 23.5474L267.571 53.2341C299.741 87.2655 297.996 124.964 281.095 157.728C267.163 184.738 247.236 216.639 242.774 238.951C234.259 269.849 230.984 303.105 239.5 335.643C242.631 347.608 252.597 367.557 268.323 382.694C265.165 395.954 251.072 413.702 238.617 422.98C238.617 422.98 227.432 419.457 219.796 419.43C212.173 419.404 200.516 422.83 200.516 422.83Z" fill="url(#pattern0_712_4066)"/>
<path d="M200.516 422.83C188.061 413.553 173.968 395.805 170.81 382.545C186.536 367.408 196.501 347.458 199.633 335.494C208.148 302.956 204.874 269.699 196.358 238.802C191.896 216.49 171.97 184.589 158.037 157.579C141.136 124.814 139.393 87.1159 171.562 53.0845L199.633 23.3977L219.567 2.43555L239.502 23.5474L267.571 53.2341C299.741 87.2655 297.996 124.964 281.095 157.728C267.163 184.738 247.236 216.639 242.774 238.951C234.259 269.849 230.984 303.105 239.5 335.643C242.631 347.608 252.597 367.557 268.323 382.694C265.165 395.954 251.072 413.702 238.617 422.98C238.617 422.98 227.432 419.457 219.796 419.43C212.173 419.404 200.516 422.83 200.516 422.83Z" stroke="black" stroke-width="2.56753"/>
<path d="M337.827 401.384C267.749 396.859 208.582 317.16 273.842 186.459C337.827 64.6578 508.933 162.109 403.373 268.223C403.373 268.223 389.496 217.898 337.827 217.898C257.947 220.796 238.736 378.021 352.653 357.775L337.827 401.384Z" fill="black"/>
<path d="M337.827 401.384C267.749 396.859 208.582 317.16 273.842 186.459C337.827 64.6578 508.933 162.109 403.373 268.223C403.373 268.223 389.496 217.898 337.827 217.898C257.947 220.796 238.736 378.021 352.653 357.775L337.827 401.384Z" fill="url(#pattern1_712_4066)"/>
<path d="M337.827 401.384C267.749 396.859 208.582 317.16 273.842 186.459C337.827 64.6578 508.933 162.109 403.373 268.223C403.373 268.223 389.496 217.898 337.827 217.898C257.947 220.796 238.736 378.021 352.653 357.775L337.827 401.384Z" stroke="black" stroke-width="2.56753"/>
<path d="M100.931 401.384C171.009 396.859 230.175 317.16 164.916 186.459C100.931 64.6578 -70.175 162.109 35.3844 268.223C35.3844 268.223 49.2622 217.898 100.931 217.898C180.811 220.796 200.022 378.021 86.1047 357.775L100.931 401.384Z" fill="black"/>
<path d="M100.931 401.384C171.009 396.859 230.175 317.16 164.916 186.459C100.931 64.6578 -70.175 162.109 35.3844 268.223C35.3844 268.223 49.2622 217.898 100.931 217.898C180.811 220.796 200.022 378.021 86.1047 357.775L100.931 401.384Z" fill="url(#pattern2_712_4066)"/>
<path d="M100.931 401.384C171.009 396.859 230.175 317.16 164.916 186.459C100.931 64.6578 -70.175 162.109 35.3844 268.223C35.3844 268.223 49.2622 217.898 100.931 217.898C180.811 220.796 200.022 378.021 86.1047 357.775L100.931 401.384Z" stroke="black" stroke-width="2.56753"/>
<defs>
<pattern id="pattern0_712_4066" patternUnits="userSpaceOnUse" patternTransform="matrix(7.01791 0 0 7.01791 139.393 0.741079)" preserveAspectRatio="none" viewBox="0 -9.89941 41 41" width="1" height="1">
<use xlink:href="#pattern0_712_4066_inner" transform="translate(-41 -41)"/>
<use xlink:href="#pattern0_712_4066_inner" transform="translate(0 -41)"/>
<use xlink:href="#pattern0_712_4066_inner" transform="translate(-41 0)"/>
<g id="pattern0_712_4066_inner">
<line x1="4.94975" y1="-4.94975" x2="45.9497" y2="36.0503" stroke="#2B2117" stroke-width="14"/>
</g>
</pattern><pattern id="pattern1_712_4066" patternUnits="userSpaceOnUse" patternTransform="matrix(7.01791 0 0 7.01791 208.582 62.9633)" preserveAspectRatio="none" viewBox="0 -9.89941 41 41" width="1" height="1">
<use xlink:href="#pattern1_712_4066_inner" transform="translate(-41 -41)"/>
<use xlink:href="#pattern1_712_4066_inner" transform="translate(0 -41)"/>
<use xlink:href="#pattern1_712_4066_inner" transform="translate(-41 0)"/>
<g id="pattern1_712_4066_inner">
<line x1="4.94975" y1="-4.94975" x2="45.9497" y2="36.0503" stroke="#2B2117" stroke-width="14"/>
</g>
</pattern><pattern id="pattern2_712_4066" patternUnits="userSpaceOnUse" patternTransform="matrix(-7.01791 0 0 7.01791 230.175 62.9633)" preserveAspectRatio="none" viewBox="0 -9.89941 41 41" width="1" height="1">
<use xlink:href="#pattern2_712_4066_inner" transform="translate(-41 -41)"/>
<use xlink:href="#pattern2_712_4066_inner" transform="translate(0 -41)"/>
<use xlink:href="#pattern2_712_4066_inner" transform="translate(-41 0)"/>
<g id="pattern2_712_4066_inner">
<line x1="4.94975" y1="-4.94975" x2="45.9497" y2="36.0503" stroke="#2B2117" stroke-width="14"/>
</g>
</pattern></defs>
</svg>
