<svg width="444" height="477" viewBox="0 0 444 477" fill="none" xmlns="http://www.w3.org/2000/svg" xmlns:xlink="http://www.w3.org/1999/xlink">
<g opacity="0.9">
<path d="M200.558 474.457C186.563 464.033 170.728 444.091 167.18 429.192C184.849 412.184 196.046 389.768 199.565 376.325C209.133 339.765 205.454 302.397 195.885 267.681C190.872 242.61 168.482 206.766 152.828 176.417C133.837 139.603 131.878 97.2445 168.024 59.0065L199.565 25.65L221.963 2.09668L244.362 25.8182L275.901 59.1746C312.047 97.4126 310.087 139.771 291.097 176.586C275.442 206.934 253.053 242.778 248.039 267.849C238.471 302.565 234.792 339.933 244.36 376.493C247.879 389.937 259.076 412.352 276.746 429.36C273.197 444.259 257.362 464.201 243.367 474.625C243.367 474.625 230.8 470.667 222.22 470.637C213.655 470.607 200.558 474.457 200.558 474.457Z" fill="#2B2117"/>
<path d="M200.558 474.457C186.563 464.033 170.728 444.091 167.18 429.192C184.849 412.184 196.046 389.768 199.565 376.325C209.133 339.765 205.454 302.397 195.885 267.681C190.872 242.61 168.482 206.766 152.828 176.417C133.837 139.603 131.878 97.2445 168.024 59.0065L199.565 25.65L221.963 2.09668L244.362 25.8182L275.901 59.1746C312.047 97.4126 310.087 139.771 291.097 176.586C275.442 206.934 253.053 242.778 248.039 267.849C238.471 302.565 234.792 339.933 244.36 376.493C247.879 389.937 259.076 412.352 276.746 429.36C273.197 444.259 257.362 464.201 243.367 474.625C243.367 474.625 230.8 470.667 222.22 470.637C213.655 470.607 200.558 474.457 200.558 474.457Z" fill="url(#pattern0_707_2557)"/>
<path d="M200.558 474.457C186.563 464.033 170.728 444.091 167.18 429.192C184.849 412.184 196.046 389.768 199.565 376.325C209.133 339.765 205.454 302.397 195.885 267.681C190.872 242.61 168.482 206.766 152.828 176.417C133.837 139.603 131.878 97.2445 168.024 59.0065L199.565 25.65L221.963 2.09668L244.362 25.8182L275.901 59.1746C312.047 97.4126 310.087 139.771 291.097 176.586C275.442 206.934 253.053 242.778 248.039 267.849C238.471 302.565 234.792 339.933 244.36 376.493C247.879 389.937 259.076 412.352 276.746 429.36C273.197 444.259 257.362 464.201 243.367 474.625C243.367 474.625 230.8 470.667 222.22 470.637C213.655 470.607 200.558 474.457 200.558 474.457Z" stroke="#2B2117" stroke-width="2.8849"/>
</g>
<g opacity="0.9">
<path d="M341.85 442.715C270.801 438.119 210.816 357.156 276.978 224.383C341.85 100.651 515.324 199.647 408.303 307.444C408.303 307.444 394.233 256.321 341.85 256.321C260.864 259.265 241.387 418.982 356.881 398.415L341.85 442.715Z" fill="#2B2117"/>
<path d="M341.85 442.715C270.801 438.119 210.816 357.156 276.978 224.383C341.85 100.651 515.324 199.647 408.303 307.444C408.303 307.444 394.233 256.321 341.85 256.321C260.864 259.265 241.387 418.982 356.881 398.415L341.85 442.715Z" fill="url(#pattern1_707_2557)"/>
<path d="M341.85 442.715C270.801 438.119 210.816 357.156 276.978 224.383C341.85 100.651 515.324 199.647 408.303 307.444C408.303 307.444 394.233 256.321 341.85 256.321C260.864 259.265 241.387 418.982 356.881 398.415L341.85 442.715Z" stroke="#2B2117" stroke-width="2.8849"/>
</g>
<g opacity="0.9">
<path d="M101.969 442.715C173.017 438.119 233.003 357.156 166.84 224.383C101.969 100.651 -71.5057 199.647 35.515 307.444C35.515 307.444 49.585 256.321 101.969 256.321C182.955 259.265 202.432 418.982 86.9375 398.415L101.969 442.715Z" fill="#2B2117"/>
<path d="M101.969 442.715C173.017 438.119 233.003 357.156 166.84 224.383C101.969 100.651 -71.5057 199.647 35.515 307.444C35.515 307.444 49.585 256.321 101.969 256.321C182.955 259.265 202.432 418.982 86.9375 398.415L101.969 442.715Z" fill="url(#pattern2_707_2557)"/>
<path d="M101.969 442.715C173.017 438.119 233.003 357.156 166.84 224.383C101.969 100.651 -71.5057 199.647 35.515 307.444C35.515 307.444 49.585 256.321 101.969 256.321C182.955 259.265 202.432 418.982 86.9375 398.415L101.969 442.715Z" stroke="#2B2117" stroke-width="2.8849"/>
</g>
<defs>
<pattern id="pattern0_707_2557" patternUnits="userSpaceOnUse" patternTransform="matrix(7.8854 0 0 7.8854 131.878 0.192756)" preserveAspectRatio="none" viewBox="0 -9.89941 41 41" width="1" height="1">
<use xlink:href="#pattern0_707_2557_inner" transform="translate(-41 -41)"/>
<use xlink:href="#pattern0_707_2557_inner" transform="translate(0 -41)"/>
<use xlink:href="#pattern0_707_2557_inner" transform="translate(-41 0)"/>
<g id="pattern0_707_2557_inner">
<line x1="4.94975" y1="-4.94975" x2="45.9497" y2="36.0503" stroke="#2B2117" stroke-width="14"/>
</g>
</pattern><pattern id="pattern1_707_2557" patternUnits="userSpaceOnUse" patternTransform="matrix(7.8854 0 0 7.8854 210.816 98.7474)" preserveAspectRatio="none" viewBox="0 -9.89941 41 41" width="1" height="1">
<use xlink:href="#pattern1_707_2557_inner" transform="translate(-41 -41)"/>
<use xlink:href="#pattern1_707_2557_inner" transform="translate(0 -41)"/>
<use xlink:href="#pattern1_707_2557_inner" transform="translate(-41 0)"/>
<g id="pattern1_707_2557_inner">
<line x1="4.94975" y1="-4.94975" x2="45.9497" y2="36.0503" stroke="#2B2117" stroke-width="14"/>
</g>
</pattern><pattern id="pattern2_707_2557" patternUnits="userSpaceOnUse" patternTransform="matrix(-7.8854 0 0 7.8854 233.003 98.7474)" preserveAspectRatio="none" viewBox="0 -9.89941 41 41" width="1" height="1">
<use xlink:href="#pattern2_707_2557_inner" transform="translate(-41 -41)"/>
<use xlink:href="#pattern2_707_2557_inner" transform="translate(0 -41)"/>
<use xlink:href="#pattern2_707_2557_inner" transform="translate(-41 0)"/>
<g id="pattern2_707_2557_inner">
<line x1="4.94975" y1="-4.94975" x2="45.9497" y2="36.0503" stroke="#2B2117" stroke-width="14"/>
</g>
</pattern></defs>
</svg>
